<svg id="ship" xmlns="http://www.w3.org/2000/svg" width="34" height="39.223" viewBox="0 0 34 39.223">
  <path id="Path_730" data-name="Path 730" d="M26.229,457.23A4.48,4.48,0,0,1,23.4,456.2l-.022-.018a2.7,2.7,0,0,0-3.538,0,4.4,4.4,0,0,1-5.69,0,2.705,2.705,0,0,0-3.538,0,4.4,4.4,0,0,1-5.69,0,2.706,2.706,0,0,0-3.539,0,.85.85,0,1,1-1.076-1.316,4.4,4.4,0,0,1,5.689,0,2.706,2.706,0,0,0,3.539,0,4.4,4.4,0,0,1,5.69,0,2.706,2.706,0,0,0,3.539,0,4.4,4.4,0,0,1,5.669-.017l.022.017a2.705,2.705,0,0,0,3.538,0,4.4,4.4,0,0,1,5.69,0,.85.85,0,1,1-1.076,1.316,2.706,2.706,0,0,0-3.539,0,4.48,4.48,0,0,1-2.844,1.043Z" transform="translate(0 -418.007)" fill="#423460"/>
  <path id="Path_731" data-name="Path 731" d="M46.1,219.2a4.473,4.473,0,0,1-2.85-1.042,2.758,2.758,0,0,0-3.539,0,4.419,4.419,0,0,1-5.689,0,2.734,2.734,0,0,0-3.53,0,4.468,4.468,0,0,1-2.853,1.045c-.032,0-.13-.007-.162-.011a.8.8,0,0,1-.763-.579l-5.1-15.291a.849.849,0,0,1,.443-1.038l14.381-6.8a.844.844,0,0,1,.724,0l14.518,6.8a.849.849,0,0,1,.446,1.038l-5.1,15.291a.849.849,0,0,1-.806.581.678.678,0,0,1-.12.009Zm-13.846-3.4a4.423,4.423,0,0,1,2.845,1.045,2.716,2.716,0,0,0,3.537,0,4.5,4.5,0,0,1,5.694,0,2.869,2.869,0,0,0,1.288.611L50.271,203.5l-13.47-6.31-13.339,6.307,4.657,13.961a2.881,2.881,0,0,0,1.291-.616,4.423,4.423,0,0,1,2.841-1.041Z" transform="translate(-19.865 -179.974)" fill="#423460"/>
  <path id="Path_732" data-name="Path 732" d="M96.657,71.537a.844.844,0,0,1-.36-.08l-9.906-4.64-9.77,4.623a.85.85,0,0,1-1.214-.769V61.5a.85.85,0,0,1,.85-.85h2.55v-5.95a.85.85,0,0,1,.85-.85h13.6a.85.85,0,0,1,.85.85v5.95h2.55a.85.85,0,0,1,.85.85v9.182a.85.85,0,0,1-.85.85Zm-10.268-6.51a.839.839,0,0,1,.36.081l9.058,4.242V62.355h-2.55a.85.85,0,0,1-.85-.85v-5.95h-11.9v5.95a.85.85,0,0,1-.85.85h-2.55v6.973l8.918-4.22a.858.858,0,0,1,.364-.081Z" transform="translate(-69.455 -49.604)" fill="#423460"/>
  <path id="Path_733" data-name="Path 733" d="M187.33,5.95h-3.4a.85.85,0,0,1-.85-.85V1.7a1.7,1.7,0,0,1,1.7-1.7h1.7a1.7,1.7,0,0,1,1.7,1.7V5.1a.849.849,0,0,1-.85.85Zm-2.55-1.7h1.7V1.7h-1.7Z" transform="translate(-168.63)" fill="#423460"/>
  <path id="Path_734" data-name="Path 734" d="M205.458,229.11a.849.849,0,0,1-.85-.85V207.009a.85.85,0,1,1,1.7,0V228.26a.85.85,0,0,1-.85.85" transform="translate(-188.459 -189.887)" fill="#423460"/>
</svg>
