<svg xmlns="http://www.w3.org/2000/svg" xmlns:xlink="http://www.w3.org/1999/xlink" width="181.952" height="45" viewBox="0 0 181.952 45">
  <defs>
    <clipPath id="clip-path">
      <rect id="Rectangle_10" data-name="Rectangle 10" width="137.458" height="45" fill="none"/>
    </clipPath>
    <clipPath id="clip-path-2">
      <rect id="Rectangle_12" data-name="Rectangle 12" width="54.952" height="21.693" transform="translate(0 0)" fill="none"/>
    </clipPath>
  </defs>
  <g id="Ship247_Beta_02" transform="translate(-4260 752)">
    <g id="Group_7" data-name="Group 7" transform="translate(4260 -752)">
      <g id="Group_6" data-name="Group 6" transform="translate(0 0)" clip-path="url(#clip-path)">
        <path id="Path_1" data-name="Path 1" d="M8.848,50.556H19.425c5.59,0,8.486,3.9,8.486,8.245v.684H21.154V58.318a1.67,1.67,0,0,0-1.81-1.81H9.009a1.659,1.659,0,0,0-1.77,1.81v.764a1.71,1.71,0,0,0,1.809,1.81h11.06c5.631,0,8.325,3.941,8.325,8.285,0,4.263-2.855,8.043-8.325,8.043H8.526C2.9,77.22,0,73.319,0,68.935v-.684H6.756v1.207a1.64,1.64,0,0,0,1.77,1.81H19.867a1.67,1.67,0,0,0,1.81-1.81v-.764a1.7,1.7,0,0,0-1.81-1.85H8.848C3.217,66.844.523,62.9.523,58.6c0-4.263,2.815-8.043,8.325-8.043" transform="translate(0 -32.22)" fill="#2c1e3f"/>
        <path id="Path_2" data-name="Path 2" d="M105.294,60.892V50.556h6.716V77.22h-6.716V66.844H91.379V77.22H84.622V50.556h6.756V60.892Z" transform="translate(-53.931 -32.22)" fill="#2c1e3f"/>
        <path id="Path_3" data-name="Path 3" d="M193.748,50.556v5.952l-10.336-.04v14.8h10.336V77.22H166.36V71.268H176.7v-14.8l-10.336.04V50.556Z" transform="translate(-106.024 -32.22)" fill="#2c1e3f"/>
        <path id="Path_4" data-name="Path 4" d="M254.855,77.22H248.1V50.556h19.384c5.63,0,8.566,3.861,8.566,8.245,0,4.424-3.137,8.043-8.566,8.043H254.855Zm0-16.328h12.628a1.689,1.689,0,0,0,1.81-1.81v-.764a1.67,1.67,0,0,0-1.81-1.81l-12.628-.04Z" transform="translate(-158.117 -32.22)" fill="#2c1e3f"/>
        <path id="Path_5" data-name="Path 5" d="M305.31,15.736c-.547,0-.787-.24-.787-.787V11.19c0-3.388,1.421-4.175,3.431-4.786l2.929-.918a.667.667,0,0,0,.59-.787c0-.437-.153-.569-.59-.569h-4.743c-.546,0-.787-.24-.787-.786V.787c0-.546.241-.787.787-.787h6.447c2.492,0,3.847,1.268,3.847,3.628V5.682c0,2.208-1.29,3.213-3.41,3.868l-2.972.94c-.437.131-.568.174-.568.655v.459h9.66v7.766c0,.547-.24.787-.787.787h-3.366c-.546,0-.787-.24-.787-.787V15.753Z" transform="translate(-194.077 0)" fill="#d23c3c"/>
        <path id="Path_6" data-name="Path 6" d="M358.377,10.9v5.53c0,2.776-1.071,3.628-3.41,4.328l-1.617.481v4.581c0,.546-.24.787-.787.787h-3.541c-.546,0-.787-.24-.787-.787V21.1c0-2.776,1.071-3.628,3.41-4.328l1.77-.481V14.328h-5.989c-.546,0-.787-.24-.787-.787V10.9c0-.546.24-.787.787-.787H357.59c.546,0,.787.24.787.787" transform="translate(-220.918 -6.443)" fill="#d23c3c"/>
      </g>
    </g>
    <g id="Group_12" data-name="Group 12" transform="translate(4387 -728.693)">
      <g id="Group_11" data-name="Group 11" clip-path="url(#clip-path-2)">
        <path id="Path_12" data-name="Path 12" d="M0,0H50.952a4,4,0,0,1,4,4V17.693a4,4,0,0,1-4,4H4a4,4,0,0,1-4-4Z" fill="#e22222"/>
        <path id="Path_13" data-name="Path 13" d="M11.553,5.5c2.354,0,3.854,1.02,3.854,2.625a2.35,2.35,0,0,1-1.8,2.31,2.587,2.587,0,0,1,2.16,2.655c0,1.785-1.56,2.91-4.035,2.91H6.588V5.5ZM9.243,9.7H11.4c.78,0,1.276-.42,1.276-1.1s-.5-1.065-1.276-1.065H9.243Zm0,4.245H11.4c.99,0,1.606-.436,1.606-1.186,0-.7-.616-1.139-1.606-1.139H9.243Z" fill="#fff"/>
        <path id="Path_14" data-name="Path 14" d="M21.483,7.6V9.686h5.01v2.1h-5.01V13.9H27.2V16H18.813V5.5h8.22V7.6Z" fill="#fff"/>
        <path id="Path_15" data-name="Path 15" d="M35.283,7.646V16h-2.67V7.646H29.478V5.486h8.97v2.16Z" fill="#fff"/>
        <path id="Path_16" data-name="Path 16" d="M42.347,14.065,41.583,16H38.839L43.368,5.5h2.745L50.538,16h-2.85l-.75-1.935Zm2.311-5.91L43.129,12.04h3.029Z" fill="#fff"/>
      </g>
    </g>
  </g>
</svg>
