<?xml version="1.0" encoding="utf-8"?>
<!-- Generator: Adobe Illustrator 27.9.0, SVG Export Plug-In . SVG Version: 6.00 Build 0)  -->
<svg version="1.1" id="Layer_1" xmlns="http://www.w3.org/2000/svg" xmlns:xlink="http://www.w3.org/1999/xlink" x="0px" y="0px"
	 viewBox="0 0 137.5 45" style="enable-background:new 0 0 137.5 45;" xml:space="preserve">
<style type="text/css">
	.st0{clip-path:url(#SVGID_00000122716433899211915980000004405938627959417513_);}
	.st1{fill:#2C1E3F;}
	.st2{fill:#D23C3C;}
</style>
<g id="Group_7" transform="translate(4260 -752)">
	<g>
		<defs>
			<rect id="SVGID_1_" x="-4260" y="752" width="137.5" height="45"/>
		</defs>
		<clipPath id="SVGID_00000030484062574919251330000011616881335095353230_">
			<use xlink:href="#SVGID_1_"  style="overflow:visible;"/>
		</clipPath>
		<g id="Group_6" transform="translate(0 0)" style="clip-path:url(#SVGID_00000030484062574919251330000011616881335095353230_);">
			<path id="Path_1" class="st1" d="M-4251.2,770.3h10.6c5.6,0,8.5,3.9,8.5,8.2v0.7h-6.8v-1.2c0.1-0.9-0.6-1.7-1.5-1.8
				c-0.1,0-0.2,0-0.3,0h-10.3c-0.9-0.1-1.7,0.6-1.8,1.5c0,0.1,0,0.2,0,0.3v0.8c-0.1,0.9,0.7,1.8,1.6,1.8c0.1,0,0.1,0,0.2,0h11.1
				c5.6,0,8.3,3.9,8.3,8.3c0,4.3-2.9,8-8.3,8h-11.6c-5.6,0-8.5-3.9-8.5-8.3V788h6.8v1.2c-0.1,0.9,0.6,1.7,1.5,1.8c0.1,0,0.2,0,0.3,0
				h11.3c0.9,0.1,1.7-0.6,1.8-1.5c0-0.1,0-0.2,0-0.3v-0.8c0.1-0.9-0.6-1.8-1.5-1.8c-0.1,0-0.2,0-0.3,0h-11c-5.6,0-8.3-3.9-8.3-8.2
				C-4259.5,774.1-4256.7,770.3-4251.2,770.3"/>
			<path id="Path_2" class="st1" d="M-4208.6,780.7v-10.3h6.7V797h-6.7v-10.4h-13.9V797h-6.8v-26.7h6.8v10.3H-4208.6z"/>
			<path id="Path_3" class="st1" d="M-4172.3,770.3v6l-10.3,0V791h10.3v6h-27.4v-6h10.3v-14.8l-10.3,0v-6H-4172.3z"/>
			<path id="Path_4" class="st1" d="M-4163.3,797h-6.8v-26.7h19.4c5.6,0,8.6,3.9,8.6,8.2c0,4.4-3.1,8-8.6,8h-12.6V797z
				 M-4163.3,780.7h12.6c0.9,0.1,1.7-0.6,1.8-1.6c0-0.1,0-0.2,0-0.3v-0.8c0.1-0.9-0.6-1.7-1.5-1.8c-0.1,0-0.2,0-0.3,0l-12.6,0V780.7
				z"/>
			<path id="Path_5" class="st2" d="M-4148.8,767.7c-0.5,0-0.8-0.2-0.8-0.8v-3.8c0-3.4,1.4-4.2,3.4-4.8l2.9-0.9
				c0.4,0,0.6-0.4,0.6-0.7c0,0,0,0,0-0.1c0-0.4-0.2-0.6-0.6-0.6h-4.7c-0.5,0-0.8-0.2-0.8-0.8v-2.6c0-0.5,0.2-0.8,0.8-0.8h6.4
				c2.5,0,3.8,1.3,3.8,3.6v2.1c0,2.2-1.3,3.2-3.4,3.9l-3,0.9c-0.4,0.1-0.6,0.2-0.6,0.7v0.5h9.7v7.8c0,0.5-0.2,0.8-0.8,0.8h-3.4
				c-0.5,0-0.8-0.2-0.8-0.8v-3.6L-4148.8,767.7z"/>
			<path id="Path_6" class="st2" d="M-4122.5,756.5v5.5c0,2.8-1.1,3.6-3.4,4.3l-1.6,0.5v4.6c0,0.5-0.2,0.8-0.8,0.8h-3.5
				c-0.5,0-0.8-0.2-0.8-0.8v-4.7c0-2.8,1.1-3.6,3.4-4.3l1.8-0.5v-2h-6c-0.5,0-0.8-0.2-0.8-0.8v-2.6c0-0.5,0.2-0.8,0.8-0.8h10.2
				C-4122.8,755.7-4122.5,755.9-4122.5,756.5"/>
		</g>
	</g>
</g>
</svg>
