<svg xmlns="http://www.w3.org/2000/svg" width="600" height="197.26" viewBox="0 0 600 197.26">
  <g id="logo" transform="translate(-10.84 -11.03)">
    <g id="ship" transform="translate(10.84 91.406)">
      <path id="Path_724" data-name="Path 724" d="M49.463,178.88H95.63c24.4,0,37.04,17.1,37.04,36.139v3H103.178V212.9c0-4.937-2.985-7.935-7.9-7.935H50.164c-4.74,0-7.725,3-7.725,7.935v3.347c0,4.76,3.161,7.935,7.9,7.935H98.615c24.576,0,36.339,17.277,36.339,36.317,0,18.685-12.464,35.258-36.339,35.258H48.057c-24.576,0-37.217-17.1-37.217-36.317v-3h29.5v5.287c0,4.937,2.809,7.935,7.725,7.935h49.5c4.916,0,7.9-3,7.9-7.935v-3.347c0-4.937-2.985-8.112-7.9-8.112h-48.1c-24.576,0-36.339-17.277-36.339-36.139C13.124,195.453,25.412,178.88,49.463,178.88Z" transform="translate(-10.84 -178.88)" fill="#fff"/>
      <path id="Path_725" data-name="Path 725" d="M382.031,224.189V178.88h29.316V295.764H382.031V250.282H321.292v45.482H291.8V178.88h29.492v45.309Z" transform="translate(-157.83 -178.88)" fill="#fff"/>
      <path id="Path_726" data-name="Path 726" d="M682.726,178.88v26.093l-45.118-.177v64.875h45.118v26.093H563.18V269.671H608.3V204.8l-45.118.177V178.88Z" transform="translate(-299.807 -178.88)" fill="#fff"/>
      <path id="Path_727" data-name="Path 727" d="M864.042,295.764H834.55V178.88h84.614c24.576,0,37.393,16.923,37.393,36.139,0,19.394-13.695,35.258-37.393,35.258H864.042Zm0-71.575h55.121c4.917,0,7.9-3.175,7.9-7.935v-3.347c0-4.937-2.984-7.935-7.9-7.935l-55.121-.177Z" transform="translate(-441.78 -178.88)" fill="#fff"/>
    </g>
    <g id="_247" data-name="247" transform="translate(492.939 11.03)">
      <path id="Path_728" data-name="Path 728" d="M1025.323,80.009c-2.384,0-3.434-1.053-3.434-3.448V60.084c0-14.849,6.2-18.3,14.977-20.983l12.784-4.022c2-.575,2.575-1.341,2.575-3.448,0-1.915-.667-2.49-2.575-2.49h-20.7c-2.384,0-3.433-1.053-3.433-3.448V14.478c0-2.394,1.049-3.448,3.433-3.448h28.143c10.876,0,16.789,5.555,16.789,15.9V35.94c0,9.678-5.627,14.083-14.882,16.956l-12.974,4.118c-1.908.575-2.479.766-2.479,2.873V61.9h42.167V95.941c0,2.394-1.049,3.448-3.434,3.448h-14.692c-2.383,0-3.432-1.053-3.432-3.448V80.076Z" transform="translate(-1021.889 -11.03)" fill="#fff"/>
      <path id="Path_729" data-name="Path 729" d="M1212.946,48.048v24.24c0,12.168-4.673,15.9-14.881,18.968l-7.058,2.107V113.44c0,2.394-1.049,3.448-3.434,3.448H1172.12c-2.384,0-3.434-1.053-3.434-3.448V92.787c0-12.168,4.673-15.9,14.882-18.967l7.725-2.107V63.089h-26.141c-2.383,0-3.433-1.053-3.433-3.448V48.048c0-2.394,1.049-3.448,3.433-3.448h44.36C1211.9,44.6,1212.946,45.653,1212.946,48.048Z" transform="translate(-1095.045 -28.525)" fill="#fff"/>
    </g>
  </g>
</svg>
