<svg xmlns="http://www.w3.org/2000/svg" width="32" height="37.818" viewBox="0 0 32 37.818">
  <g id="alert-icon" transform="translate(0 0)">
    <path id="Path_731" data-name="Path 731" d="M28.392,22.888V17.412a12.68,12.68,0,0,0-1.965-6.755A12.469,12.469,0,0,0,21.18,6.031V5.25A5.262,5.262,0,0,0,18.586.7,5.136,5.136,0,0,0,13.4.7,5.262,5.262,0,0,0,10.8,5.25v.781h0a12.477,12.477,0,0,0-5.245,4.631A12.688,12.688,0,0,0,3.6,17.42v5.468l-3.2,3.6h0A1.611,1.611,0,0,0,0,27.56v3.267a1.611,1.611,0,0,0,.463,1.132,1.573,1.573,0,0,0,1.119.469h8a6.593,6.593,0,0,0,3.5,4.7,6.454,6.454,0,0,0,5.816,0,6.593,6.593,0,0,0,3.5-4.7h8.011a1.573,1.573,0,0,0,1.119-.469A1.611,1.611,0,0,0,32,30.827V27.568a1.612,1.612,0,0,0-.4-1.069Zm-12.4,11.745a3.341,3.341,0,0,1-1.908-.6,3.4,3.4,0,0,1-1.233-1.593h6.282A3.4,3.4,0,0,1,17.9,34.029a3.34,3.34,0,0,1-1.908.6m12.841-5.4H3.153V28.181l3.2-3.6h0a1.613,1.613,0,0,0,.4-1.069V17.42a9.449,9.449,0,0,1,1.7-5.39,9.275,9.275,0,0,1,4.458-3.417,1.584,1.584,0,0,0,.763-.586,1.613,1.613,0,0,0,.289-.924V5.25a2.053,2.053,0,0,1,1.012-1.774,2,2,0,0,1,2.024,0A2.053,2.053,0,0,1,18.008,5.25V7.1h0a1.615,1.615,0,0,0,.289.924,1.584,1.584,0,0,0,.763.586,9.264,9.264,0,0,1,4.459,3.416,9.44,9.44,0,0,1,1.7,5.391V23.5a1.611,1.611,0,0,0,.4,1.069l3.2,3.6Z" transform="translate(0 0)" fill="#2c1e3f"/>
  </g>
</svg>
