<svg id="booking-icon" xmlns="http://www.w3.org/2000/svg" width="32" height="30.001" viewBox="0 0 32 30.001">
  <path id="Path_745" data-name="Path 745" d="M145.3,16.8h-13a3.5,3.5,0,0,0-3.5,3.5v12a3.5,3.5,0,0,0,3.5,3.5h13a3.5,3.5,0,0,0,3.5-3.5v-12a3.5,3.5,0,0,0-3.5-3.5Zm.5,15.5h0a.5.5,0,0,1-.5.5h-13a.5.5,0,0,1-.5-.5v-12a.5.5,0,0,1,.5-.5h5v4.5h3V19.8h5a.5.5,0,0,1,.5.5Z" transform="translate(-117.299 -15.302)" fill="#fff"/>
  <path id="Path_746" data-name="Path 746" d="M4.5,5.5V21.195a5.8,5.8,0,0,1,3,0V5.5A5.5,5.5,0,0,0,2,0H0V3H2A2.5,2.5,0,0,1,4.5,5.5Z" fill="#fff"/>
  <path id="Path_747" data-name="Path 747" d="M128.742,276.9a3.311,3.311,0,0,1-.025.5h20.025v-3H128.187a5.955,5.955,0,0,1,.555,2.5Z" transform="translate(-116.742 -249.902)" fill="#fff"/>
  <path id="Path_748" data-name="Path 748" d="M39.594,271.8a3,3,0,1,1-3-3,3,3,0,0,1,3,3" transform="translate(-30.595 -244.803)" fill="#fff"/>
</svg>
