<svg id="date-icon" xmlns="http://www.w3.org/2000/svg" width="32" height="30.118" viewBox="0 0 32 30.118">
  <path id="Path_730" data-name="Path 730" d="M28.262,2.4h-2.1V1.133a1.115,1.115,0,1,0-2.23,0V2.4H8.525V1.133a1.115,1.115,0,1,0-2.23,0V2.4H3.738A3.758,3.758,0,0,0,0,6.177V26.32a3.771,3.771,0,0,0,3.738,3.8H28.262A3.775,3.775,0,0,0,32,26.32V6.177A3.754,3.754,0,0,0,28.262,2.4ZM29.771,26.32a1.521,1.521,0,0,1-1.508,1.533H3.738A1.521,1.521,0,0,1,2.23,26.32V11.927H29.771ZM2.229,9.662V6.177A1.5,1.5,0,0,1,3.737,4.664H6.295v.846a1.115,1.115,0,1,0,2.23,0V4.664h15.41v.846a1.115,1.115,0,1,0,2.23,0V4.664h2.1A1.5,1.5,0,0,1,29.77,6.177V9.662Z" fill="#423460"/>
</svg>
