<svg xmlns="http://www.w3.org/2000/svg" width="32" height="28.444" viewBox="0 0 32 28.444">
  <g id="home-icon" transform="translate(0 0)">
    <path id="Path_743" data-name="Path 743" d="M47.27,65.854a1.031,1.031,0,0,0-1.058,1v12.61a.96.96,0,0,1-.92,1H29.424a.96.96,0,0,1-.921-1V66.885a1.091,1.091,0,0,0-2.179,0v12.58a2.916,2.916,0,0,0,.881,2.138,3.261,3.261,0,0,0,2.219.925H45.291A3.263,3.263,0,0,0,47.51,81.6a2.919,2.919,0,0,0,.88-2.138V66.885a.975.975,0,0,0-.32-.75A1.093,1.093,0,0,0,47.27,65.854Z" transform="translate(-21.351 -54.083)" fill="#fff"/>
    <path id="Path_744" data-name="Path 744" d="M31.409,9.019,26.353,5.937V2.5a.975.975,0,0,0-.31-.708A1.086,1.086,0,0,0,25.3,1.5H23.359a1.03,1.03,0,0,0-1.057,1v.921L17.235.332a2.364,2.364,0,0,0-2.412,0L.5,9.019a1.033,1.033,0,0,0-.475.646.984.984,0,0,0,.148.775,1.125,1.125,0,0,0,1.5.311L15.955,2.063,30.235,10.75a1.1,1.1,0,0,0,.581.16,1.06,1.06,0,0,0,1.139-.709.982.982,0,0,0-.547-1.182Z" transform="translate(0 -0.001)" fill="#fff"/>
  </g>
</svg>
