<svg xmlns="http://www.w3.org/2000/svg" width="32" height="20" viewBox="0 0 32 20">
  <g id="inbox-icon" transform="translate(1)">
    <path id="Path_750" data-name="Path 750" d="M27.2,0H4.8C2.08,0,0,1.857,0,4.286V15.714C0,18.143,2.08,20,4.8,20H27.2c2.72,0,4.8-1.857,4.8-4.286V4.286C32,1.857,29.92,0,27.2,0M25.76,2.857,16.96,9a1.59,1.59,0,0,1-1.92,0L6.24,2.857ZM27.2,17.143H4.8a1.437,1.437,0,0,1-1.6-1.429V4.286l9.92,6.857a5.54,5.54,0,0,0,5.92,0L28.8,4.286V15.714a1.437,1.437,0,0,1-1.6,1.429" transform="translate(-1)" fill="#fff"/>
  </g>
</svg>
