<svg xmlns="http://www.w3.org/2000/svg" width="32" height="27.429" viewBox="0 0 32 27.429">
  <path id="Path_749" data-name="Path 749" d="M6.857,3.429A3.428,3.428,0,0,1,10.286,0H28.571A3.428,3.428,0,0,1,32,3.429V14.857a3.428,3.428,0,0,1-3.429,3.429H25.143V24a3.428,3.428,0,0,1-3.429,3.429H3.429A3.428,3.428,0,0,1,0,24V12.571A3.428,3.428,0,0,1,3.429,9.143H6.857ZM9.143,8H29.714V5.714H9.143ZM29.714,3.429H9.143a1.143,1.143,0,0,1,1.143-1.143H28.571a1.143,1.143,0,0,1,1.143,1.143m0,6.857H9.143v4.571A1.143,1.143,0,0,0,10.286,16H28.571a1.143,1.143,0,0,0,1.143-1.143Zm-19.429,8H22.857V24a1.143,1.143,0,0,1-1.143,1.143H3.429A1.143,1.143,0,0,1,2.286,24V12.571a1.143,1.143,0,0,1,1.143-1.143H6.857v3.429a3.428,3.428,0,0,0,3.429,3.429" fill="#fff" fill-rule="evenodd"/>
</svg>
