<svg id="pref-icon" xmlns="http://www.w3.org/2000/svg" width="32" height="31.909" viewBox="0 0 32 31.909">
  <path id="Path_751" data-name="Path 751" d="M30.226,284.66h-12.8a5.194,5.194,0,0,0-3.2-3.2,5.356,5.356,0,0,0-6.756,3.2H1.782a1.778,1.778,0,0,0,0,3.555H7.471a5.666,5.666,0,0,0,3.2,3.2,5.356,5.356,0,0,0,6.756-3.2h12.8a1.778,1.778,0,0,0,0-3.555Zm-17.778,3.555a1.778,1.778,0,0,1,0-3.555,1.778,1.778,0,0,1,0,3.555" transform="translate(-0.004 -259.771)" fill="#fff"/>
  <path id="Path_752" data-name="Path 752" d="M30.222,144.66H26.311a5.666,5.666,0,0,0-3.2-3.2,5.356,5.356,0,0,0-6.756,3.2H1.778a1.778,1.778,0,0,0,0,3.555H16.355a5.194,5.194,0,0,0,3.2,3.2,5.356,5.356,0,0,0,6.756-3.2h3.911a1.778,1.778,0,1,0,0-3.555Zm-8.889,3.555a1.778,1.778,0,0,1,0-3.555,1.778,1.778,0,0,1,0,3.555" transform="translate(0 -130.438)" fill="#fff"/>
  <path id="Path_753" data-name="Path 753" d="M30.222,3.556H10.311A5.178,5.178,0,0,0,5.333,0,5.238,5.238,0,0,0,0,5.333a5.238,5.238,0,0,0,5.333,5.333,5.178,5.178,0,0,0,4.978-3.556H30.222A1.912,1.912,0,0,0,32,5.333,1.912,1.912,0,0,0,30.222,3.556ZM5.333,7.111A1.911,1.911,0,0,1,3.556,5.333,1.912,1.912,0,0,1,5.333,3.556,1.912,1.912,0,0,1,7.111,5.333,1.911,1.911,0,0,1,5.333,7.111" fill="#fff"/>
</svg>
