<svg id="user-icon" xmlns="http://www.w3.org/2000/svg" width="32" height="34.667" viewBox="0 0 32 34.667">
  <path id="Path_732" data-name="Path 732" d="M25.76,303.33H6.24A6.457,6.457,0,0,0,0,309.768v5.117a1.536,1.536,0,0,0,1.6,1.651H30.4a1.536,1.536,0,0,0,1.6-1.651v-5.117a6.457,6.457,0,0,0-6.24-6.438Zm3.04,9.9H3.2v-3.467a3.2,3.2,0,0,1,3.04-3.136H25.6a3.088,3.088,0,0,1,3.04,3.136v3.467Z" transform="translate(0 -281.87)" fill="#423460"/>
  <path id="Path_733" data-name="Path 733" d="M113.8,18.158a9.022,9.022,0,0,0,8.8-9.079,8.8,8.8,0,1,0-17.6,0,9.022,9.022,0,0,0,8.8,9.079m0-14.857a5.781,5.781,0,1,1-5.6,5.778A5.761,5.761,0,0,1,113.8,3.3" transform="translate(-97.8)" fill="#423460"/>
</svg>
