<svg xmlns="http://www.w3.org/2000/svg" width="29.881" height="29.683" viewBox="0 0 29.881 29.683">
  <path id="Path_742" data-name="Path 742" d="M14.87,0a2.155,2.155,0,0,0-1.7.817,5.9,5.9,0,0,0-1.4,3.674l.2,5.222L1.613,16.548A3.865,3.865,0,0,0,0,19.468a.6.6,0,0,0,.814.557l8.175-3.176,3.217-.985.246,6.472a1.109,1.109,0,0,0,.092.441l.161.922L9.323,27.081a.6.6,0,0,0-.175.423v1.355a.6.6,0,0,0,.737.581l3.669-.88.048.277a.6.6,0,0,0,.07.193,1.36,1.36,0,0,0,1.195.653,1.409,1.409,0,0,0,1-.4,1.225,1.225,0,0,0,.2-.256.61.61,0,0,0,.069-.193l.045-.26,3.595.863a.6.6,0,0,0,.51-.112.563.563,0,0,0,.053-.047.6.6,0,0,0,.175-.423V27.5a.6.6,0,0,0-.175-.423l-3.317-3.317.173-.988a1.074,1.074,0,0,0,.092-.421l.22-6.546,3.351,1.025,8.216,3.19a.6.6,0,0,0,.814-.557,3.869,3.869,0,0,0-1.624-2.927L17.71,9.582l.172-5.114A5.825,5.825,0,0,0,16.566.816,2.158,2.158,0,0,0,14.87,0ZM8.6,15.72,1.456,18.494a3.138,3.138,0,0,1,.826-.954l9.744-6.429.134,3.518ZM10.343,28.1v-.35l2.613-2.613.392,2.242Zm8.969-.35V28.1l-2.931-.7.383-2.194Zm8.275-10.22a3.139,3.139,0,0,1,.838.962l-7.182-2.786-3.7-1.134.121-3.59ZM15.631,1.562a4.629,4.629,0,0,1,1.056,2.886L16.095,22.3a.6.6,0,0,0-.069.192l-.211,1.21a.588.588,0,0,0-.051.291l-.636,3.642a.293.293,0,0,0-.039.224l-.106.61a.291.291,0,0,1-.115.022.3.3,0,0,1-.115-.022l-1.044-5.978a.484.484,0,0,0-.061-.175L12.969,4.468a4.723,4.723,0,0,1,1.14-2.906.974.974,0,0,1,1.522,0Z" transform="translate(0 0)" fill="#4174c1"/>
</svg>
