<svg xmlns="http://www.w3.org/2000/svg" width="24.183" height="24" viewBox="0 0 24.183 24">
  <g id="call-icon" transform="translate(0 0)">
    <path id="Path_768" data-name="Path 768" d="M24.108,18.068a1.938,1.938,0,0,0-1.148-1.145l.182.076c-1.412-.824-2.817-1.657-4.229-2.48a2.41,2.41,0,0,0-3.068.327c-.271.256-.541.52-.811.78a1.232,1.232,0,0,1-.347.27l-.075.022c-.386-.207-.765-.431-1.132-.672-.3-.2-.589-.4-.874-.618A18.64,18.64,0,0,1,9.24,11.148a16.487,16.487,0,0,1-1.156-1.8c.329-.292.655-.592.976-.9a2.3,2.3,0,0,0,.453-2.835A4.756,4.756,0,0,1,9.2,5.075Q8.411,3.568,7.616,2.06c-.129-.243-.256-.489-.385-.732A4.378,4.378,0,0,0,6.775.575,1.884,1.884,0,0,0,4.087.553c-1.029,1.01-2.026,2.055-3.05,3.071a4.506,4.506,0,0,0-.63,4.782,27.578,27.578,0,0,0,2.561,5.1,25.306,25.306,0,0,0,11.7,9.757,8.807,8.807,0,0,0,1.87.583,6.4,6.4,0,0,0,2.668.015,2.4,2.4,0,0,0,1.368-.83q1.179-1.2,2.362-2.395a5.378,5.378,0,0,0,1-1.176,1.787,1.787,0,0,0,.177-1.4m-1.445.475s0-.008,0-.012c.027.035.042.068,0,.012m-.04-.057a.369.369,0,0,1-.021-.033.336.336,0,0,1,.021.033m.02.023c.009.026-.009-.008-.018-.019l.018.019m.014.021c0-.011,0,0,0,0v0m-.065-.091a.158.158,0,0,1-.01-.014l.01.014m-.088-.067c-.015-.01.034.015.043.018l-.043-.018m-5.452-2.623c-.038.033.005-.014.02-.027s-.006.009-.02.027m-.02.025-.039.046c.013-.016.02-.036.039-.046M12.6,14.621c.108.081.039.029,0,0M8.077,7.282s.017-.018.031-.036a.117.117,0,0,1-.031.036M5.622,1.559l-.03-.024c0-.008.014,0,.03.024m16.85,17.35c-.871.93-1.788,1.822-2.679,2.733a5.135,5.135,0,0,0-.438.469,1.428,1.428,0,0,1-.812.336,6.08,6.08,0,0,1-2.3-.225c-.271-.084-.54-.18-.806-.279a20.709,20.709,0,0,1-2.62-1.229,23.82,23.82,0,0,1-7.4-6.355A26.428,26.428,0,0,1,1.743,7.7l.076.182a4.229,4.229,0,0,1-.269-.963,2.845,2.845,0,0,1,.53-2.192c.354-.361.712-.715,1.067-1.077l1.882-1.9a.96.96,0,0,1,.294-.2.416.416,0,0,1,.236-.036l.031.02.019.02L5.6,1.547c.017.013.028.014.036.029l.032.047-.008-.008a1.79,1.79,0,0,1,.164.306c.234.447.468.893.7,1.338.539,1,1.046,2.034,1.6,3.028a.777.777,0,0,1,.16.545,1.076,1.076,0,0,1-.369.6c-.144.132-.286.266-.431.4l-.415.385a1.437,1.437,0,0,0-.524.821,1.534,1.534,0,0,0,.18,1,18.906,18.906,0,0,0,2.4,3.384A17.05,17.05,0,0,0,13.973,17.3a1.87,1.87,0,0,0,2.057-.532l.773-.742a1.34,1.34,0,0,0,.182-.19.6.6,0,0,1,.21-.16,1.665,1.665,0,0,1,1.3.37l1,.588c1,.573,1.979,1.192,2.995,1.736l-.129-.054a1.17,1.17,0,0,1,.2.111c.041.041.1.079.091.142a.947.947,0,0,1-.179.343" transform="translate(0)" fill="#d43031"/>
  </g>
</svg>
