<svg xmlns="http://www.w3.org/2000/svg" xmlns:xlink="http://www.w3.org/1999/xlink" width="98" height="98" viewBox="0 0 98 98">
  <defs>
    <clipPath id="clip-path">
      <rect id="Rectangle_123" data-name="Rectangle 123" width="53.571" height="48" fill="none"/>
    </clipPath>
  </defs>
  <g id="Group_178" data-name="Group 178" transform="translate(-754 -1432)">
    <rect id="Rectangle_104" data-name="Rectangle 104" width="98" height="98" rx="20" transform="translate(754 1432)" fill="#f0e9ff"/>
    <g id="customer-icon" transform="translate(775.428 1454)">
      <g id="Group_185" data-name="Group 185" clip-path="url(#clip-path)">
        <path id="Path_783" data-name="Path 783" d="M128.59,4.827V3.674a3.674,3.674,0,0,0-7.348,0V4.827a3.674,3.674,0,0,0,7.348,0m-1.583,0a2.091,2.091,0,1,1-4.183,0V3.674a2.091,2.091,0,1,1,4.183,0Z" transform="translate(-107.536)" fill="#423460"/>
        <path id="Path_784" data-name="Path 784" d="M295.09,4.827V3.674a3.674,3.674,0,0,0-7.348,0V4.827a3.674,3.674,0,0,0,7.348,0m-1.583,0a2.091,2.091,0,0,1-4.183,0V3.674a2.091,2.091,0,0,1,4.183,0Z" transform="translate(-255.214)" fill="#423460"/>
        <path id="Path_785" data-name="Path 785" d="M370.7,51.972h.158a3.961,3.961,0,0,0,3.957-3.957V46.557a3.961,3.961,0,0,0-3.957-3.957H370.7a3.961,3.961,0,0,0-3.957,3.957v1.458a3.961,3.961,0,0,0,3.957,3.957m-2.374-5.415a2.374,2.374,0,0,1,2.374-2.374h.158a2.374,2.374,0,0,1,2.374,2.374v1.458a2.374,2.374,0,0,1-2.374,2.374H370.7a2.374,2.374,0,0,1-2.374-2.374Z" transform="translate(-325.283 -37.784)" fill="#423460"/>
        <path id="Path_786" data-name="Path 786" d="M344.862,136.8h-.814a.792.792,0,0,0-.667.362l-.893,1.413-1.085-.6a.792.792,0,0,0-.791.011l-.95.565-.791-1.345a.818.818,0,0,0-.678-.4h-.927a4.165,4.165,0,0,0-4.149,4.533v8.626a.766.766,0,0,0,.158.464l2.555,3.493.565,12.774a2.725,2.725,0,0,0,2.736,2.634h3.878a2.723,2.723,0,0,0,2.736-2.623l.565-12.786,2.544-3.493a.755.755,0,0,0,.147-.464v-8.626a4.173,4.173,0,0,0-1.063-3.165,4.1,4.1,0,0,0-3.075-1.379m2.566,4.42v8.49l-2.532,3.482a.73.73,0,0,0-.147.43l-.588,13.034a1.149,1.149,0,0,1-1.153,1.108H339.13a1.151,1.151,0,0,1-1.153-1.119l-.577-13.023a.817.817,0,0,0-.147-.43l-2.544-3.482v-8.49a2.581,2.581,0,0,1,2.566-2.837h.475l.961,1.65a.81.81,0,0,0,.667.4.776.776,0,0,0,.418-.113l1.232-.735,1.334.746a.792.792,0,0,0,1.051-.26l1.063-1.673h.384a2.579,2.579,0,0,1,2.566,2.826" transform="translate(-295.444 -121.335)" fill="#423460"/>
        <path id="Path_787" data-name="Path 787" d="M204.2,51.972h.158a3.961,3.961,0,0,0,3.957-3.957V46.557a3.961,3.961,0,0,0-3.957-3.957H204.2a3.961,3.961,0,0,0-3.957,3.957v1.458a3.961,3.961,0,0,0,3.957,3.957m-2.374-5.415a2.374,2.374,0,0,1,2.374-2.374h.158a2.374,2.374,0,0,1,2.374,2.374v1.458a2.374,2.374,0,0,1-2.374,2.374H204.2a2.374,2.374,0,0,1-2.374-2.374Z" transform="translate(-177.605 -37.784)" fill="#423460"/>
        <path id="Path_788" data-name="Path 788" d="M178.262,136.8h-.814a.792.792,0,0,0-.667.362l-.893,1.413-1.085-.6a.792.792,0,0,0-.791.011l-.95.565-.791-1.345a.818.818,0,0,0-.678-.4h-.927a4.165,4.165,0,0,0-4.149,4.533v8.626a.766.766,0,0,0,.158.464l2.555,3.493.565,12.774a2.725,2.725,0,0,0,2.736,2.634h3.878a2.723,2.723,0,0,0,2.736-2.623l.565-12.786,2.544-3.493a.755.755,0,0,0,.147-.464v-8.626a4.173,4.173,0,0,0-1.063-3.165,4.081,4.081,0,0,0-3.075-1.379m2.566,4.42v8.49l-2.532,3.482a.73.73,0,0,0-.147.43l-.577,13.034a1.149,1.149,0,0,1-1.153,1.108h-3.878a1.151,1.151,0,0,1-1.153-1.119l-.577-13.023a.816.816,0,0,0-.147-.43l-2.544-3.482v-8.49a2.581,2.581,0,0,1,2.566-2.837h.475l.961,1.65a.81.81,0,0,0,.667.4.776.776,0,0,0,.418-.113l1.232-.735,1.334.746a.793.793,0,0,0,1.051-.26l1.063-1.673h.384a2.562,2.562,0,0,1,2.555,2.826" transform="translate(-147.677 -121.335)" fill="#423460"/>
        <path id="Path_789" data-name="Path 789" d="M37.2,51.972h.158a3.961,3.961,0,0,0,3.957-3.957V46.557A3.961,3.961,0,0,0,37.357,42.6H37.2a3.961,3.961,0,0,0-3.957,3.957v1.458A3.961,3.961,0,0,0,37.2,51.972m-2.374-5.415A2.374,2.374,0,0,1,37.2,44.183h.158a2.374,2.374,0,0,1,2.374,2.374v1.458a2.374,2.374,0,0,1-2.374,2.374H37.2a2.374,2.374,0,0,1-2.374-2.374Z" transform="translate(-29.484 -37.784)" fill="#423460"/>
        <path id="Path_790" data-name="Path 790" d="M11.762,136.8h-.814a.792.792,0,0,0-.667.362l-.893,1.413-1.085-.6a.792.792,0,0,0-.791.011l-.95.565-.791-1.345a.818.818,0,0,0-.678-.4H4.165a4.165,4.165,0,0,0-4.149,4.533v8.626a.766.766,0,0,0,.158.464l2.555,3.493L3.294,166.7a2.725,2.725,0,0,0,2.736,2.634H9.908a2.723,2.723,0,0,0,2.736-2.623l.577-12.786,2.544-3.493a.755.755,0,0,0,.147-.464v-8.626a4.182,4.182,0,0,0-4.149-4.545m2.566,4.42v8.49L11.8,153.192a.73.73,0,0,0-.147.43l-.577,13.034a1.149,1.149,0,0,1-1.153,1.108H6.03a1.151,1.151,0,0,1-1.153-1.119l-.588-13.023a.816.816,0,0,0-.147-.43L1.6,149.71v-8.49a2.581,2.581,0,0,1,2.566-2.837h.463l.961,1.65a.81.81,0,0,0,.667.4.776.776,0,0,0,.418-.113l1.232-.735,1.334.746a.792.792,0,0,0,1.051-.26l1.063-1.673h.384a2.552,2.552,0,0,1,1.911.848,2.474,2.474,0,0,1,.678,1.978" transform="translate(0 -121.335)" fill="#423460"/>
      </g>
    </g>
  </g>
</svg>
