<svg xmlns="http://www.w3.org/2000/svg" width="24" height="17.053" viewBox="0 0 24 17.053">
  <g id="email-icon" transform="translate(26 -182)">
    <path id="Path_769" data-name="Path 769" d="M22.105,0H1.895A1.9,1.9,0,0,0,0,1.895V15.158a1.9,1.9,0,0,0,1.895,1.895H22.105A1.9,1.9,0,0,0,24,15.158V1.895A1.9,1.9,0,0,0,22.105,0M1.895,1.263H22.105a.632.632,0,0,1,.632.632v.88L13.085,9.5a1.91,1.91,0,0,1-2.169,0L1.263,2.774v-.88a.632.632,0,0,1,.632-.632M22.105,15.789H1.895a.632.632,0,0,1-.632-.632V4.314l8.932,6.226A3.162,3.162,0,0,0,12,11.1h0a3.164,3.164,0,0,0,1.806-.563l8.93-6.225V15.158a.632.632,0,0,1-.632.632" transform="translate(-26 182)" fill="#d43031"/>
  </g>
</svg>
