<svg xmlns="http://www.w3.org/2000/svg" xmlns:xlink="http://www.w3.org/1999/xlink" width="37" height="36" viewBox="0 0 37 36">
  <defs>
    <clipPath id="clip-path">
      <rect id="Rectangle_211" data-name="Rectangle 211" width="37" height="36" transform="translate(0 0.5)" fill="none"/>
    </clipPath>
  </defs>
  <g id="insta-icon" transform="translate(0 -0.5)" clip-path="url(#clip-path)">
    <path id="Path_1247" data-name="Path 1247" d="M18.172,8.852a9.3,9.3,0,1,0,.028,0h-.028m0,15.375A6.058,6.058,0,1,1,24.23,18.17a6.058,6.058,0,0,1-6.058,6.058M30.045,8.472a2.168,2.168,0,1,1,0-.011v.011m6.171,2.2A10.752,10.752,0,0,0,33.28,3.063,10.828,10.828,0,0,0,25.665.127c-3-.17-11.994-.17-14.994,0A10.812,10.812,0,0,0,3.056,3.055,10.789,10.789,0,0,0,.127,10.669c-.17,3-.17,11.994,0,14.994a10.753,10.753,0,0,0,2.93,7.619,10.837,10.837,0,0,0,7.614,2.931c3,.17,11.994.17,14.994,0a10.756,10.756,0,0,0,7.615-2.931,10.827,10.827,0,0,0,2.935-7.614c.17-3,.17-11.985,0-14.986ZM32.34,28.882a6.133,6.133,0,0,1-3.455,3.455c-2.393.949-8.069.73-10.713.73s-8.328.21-10.712-.73a6.131,6.131,0,0,1-3.455-3.455c-.949-2.393-.73-8.069-.73-10.713s-.21-8.334.731-10.713A6.129,6.129,0,0,1,7.46,4.007c2.393-.949,8.069-.73,10.712-.73s8.329-.21,10.713.73A6.131,6.131,0,0,1,32.34,7.462c.949,2.393.73,8.069.73,10.712s.22,8.324-.73,10.709" transform="translate(0 0.032)" fill="#d43031"/>
  </g>
</svg>
