<svg xmlns="http://www.w3.org/2000/svg" width="18" height="18" viewBox="0 0 18 18">
  <path id="logon-icon" d="M9,10.929A5.681,5.681,0,0,1,3.115,5.464,5.681,5.681,0,0,1,9,0a5.681,5.681,0,0,1,5.885,5.464A5.681,5.681,0,0,1,9,10.929M9,1.286A4.34,4.34,0,0,0,4.5,5.464,4.34,4.34,0,0,0,9,9.643a4.34,4.34,0,0,0,4.5-4.179A4.34,4.34,0,0,0,9,1.286M17.308,18H.692A.671.671,0,0,1,0,17.357V15.429a3.355,3.355,0,0,1,3.462-3.214H14.538A3.355,3.355,0,0,1,18,15.429v1.929a.671.671,0,0,1-.692.643M1.385,16.714H16.615V15.429A2.013,2.013,0,0,0,14.538,13.5H3.462a2.013,2.013,0,0,0-2.077,1.929Z" fill="#d43031"/>
</svg>
