<svg xmlns="http://www.w3.org/2000/svg" xmlns:xlink="http://www.w3.org/1999/xlink" width="98" height="98" viewBox="0 0 98 98">
  <defs>
    <clipPath id="clip-path">
      <rect id="Rectangle_124" data-name="Rectangle 124" width="42.162" height="46" fill="none"/>
    </clipPath>
  </defs>
  <g id="Group_179" data-name="Group 179" transform="translate(-1622 -1432)">
    <rect id="Rectangle_105" data-name="Rectangle 105" width="98" height="98" rx="20" transform="translate(1622 1432)" fill="#f0e9ff"/>
    <g id="Group_187" data-name="Group 187" transform="translate(1651.925 1459.587)">
      <g id="Group_186" data-name="Group 186" transform="translate(-1.924 -1.587)" clip-path="url(#clip-path)">
        <path id="Path_791" data-name="Path 791" d="M33.412,14.706a6.706,6.706,0,1,0-6.706,6.706,6.713,6.713,0,0,0,6.706-6.706M26.706,19.5A4.794,4.794,0,1,1,31.5,14.706,4.8,4.8,0,0,1,26.706,19.5" transform="translate(-5.625 -2.25)" fill="#423460"/>
        <path id="Path_792" data-name="Path 792" d="M6.286,32.581a.956.956,0,0,0,.956-.956V29.706H21.617v1.919a.956.956,0,1,0,1.912,0V29.706H37.9v1.919a.956.956,0,0,0,1.912,0V28.75a.956.956,0,0,0-.956-.956H23.536V24.919h.956a.951.951,0,0,0,.855-.532l1.057-2.12c.129-.05.266-.108.4-.165l2.25.748a.945.945,0,0,0,.977-.23l2.71-2.71a.952.952,0,0,0,.23-.978l-.747-2.25c.057-.129.115-.266.165-.4L34.5,15.23a.967.967,0,0,0,.532-.855V10.544a.951.951,0,0,0-.532-.855L32.391,8.625c-.05-.129-.108-.266-.165-.4l.748-2.242a.945.945,0,0,0-.23-.977L30.033,2.3a.952.952,0,0,0-.978-.23l-2.25.747c-.129-.057-.266-.115-.4-.165L25.354.532A.967.967,0,0,0,24.5,0H20.668a.951.951,0,0,0-.855.532L18.756,2.645c-.129.05-.266.108-.4.165l-2.243-.747a.96.96,0,0,0-.978.23L12.431,5a.952.952,0,0,0-.23.977l.748,2.243c-.057.129-.115.266-.165.4l-2.12,1.057a.967.967,0,0,0-.532.855v3.845a.951.951,0,0,0,.532.855l2.12,1.057c.05.129.108.266.165.4l-.748,2.25a.945.945,0,0,0,.23.978l2.71,2.71a.948.948,0,0,0,.978.23l2.25-.748c.129.058.266.115.4.165l1.057,2.12a.967.967,0,0,0,.855.532h.956v2.875H6.286a.956.956,0,0,0-.956.956v2.875a.956.956,0,0,0,.956.956M21.258,23l-.963-1.926a.969.969,0,0,0-.539-.474,8.547,8.547,0,0,1-.92-.381.925.925,0,0,0-.719-.043l-2.041.683L14.2,18.982l.683-2.041a.926.926,0,0,0-.05-.719,7.2,7.2,0,0,1-.381-.927.925.925,0,0,0-.474-.539l-1.926-.963V11.148l1.926-.963a.946.946,0,0,0,.474-.539c.108-.309.237-.618.381-.927A.958.958,0,0,0,14.882,8L14.2,5.958l1.876-1.876,2.041.683a.957.957,0,0,0,.719-.043,9,9,0,0,1,.92-.388.925.925,0,0,0,.539-.474l.963-1.926H23.9l.963,1.926a.969.969,0,0,0,.539.474,9.2,9.2,0,0,1,.92.381.958.958,0,0,0,.719.05l2.048-.683,1.876,1.876L30.285,8a.926.926,0,0,0,.05.719,8.661,8.661,0,0,1,.381.927.925.925,0,0,0,.474.539l1.926.963v2.645l-1.926.963a.946.946,0,0,0-.474.539c-.108.309-.237.618-.381.927a.958.958,0,0,0-.05.719l.683,2.041-1.876,1.876-2.048-.683a.926.926,0,0,0-.719.05,9.2,9.2,0,0,1-.92.381.925.925,0,0,0-.539.474L23.9,23Z" transform="translate(-1.499 0)" fill="#423460"/>
        <path id="Path_793" data-name="Path 793" d="M53.279,52.664a3.831,3.831,0,1,0-6.311,0,4.721,4.721,0,0,0-1.639,3.587V58.17a.96.96,0,0,0,.956.956h7.669a.956.956,0,0,0,.956-.956V56.251a4.738,4.738,0,0,0-1.632-3.587m-3.155-4.083A1.923,1.923,0,0,1,52.043,50.5a1.919,1.919,0,1,1-3.838,0,1.923,1.923,0,0,1,1.919-1.919M53,57.207h-5.75v-.956a2.828,2.828,0,0,1,1.2-2.314,3.685,3.685,0,0,0,3.349,0A2.838,2.838,0,0,1,53,56.251Z" transform="translate(-12.749 -13.126)" fill="#423460"/>
        <path id="Path_794" data-name="Path 794" d="M30.612,52.664a3.831,3.831,0,1,0-6.311,0,4.727,4.727,0,0,0-1.632,3.587V58.17a.956.956,0,0,0,.956.956h7.669a.956.956,0,0,0,.956-.956V56.251a4.745,4.745,0,0,0-1.639-3.587m-3.155-4.083A1.923,1.923,0,0,1,29.376,50.5a1.919,1.919,0,1,1-3.838,0,1.923,1.923,0,0,1,1.919-1.919m2.875,8.625h-5.75v-.956a2.828,2.828,0,0,1,1.2-2.314,3.685,3.685,0,0,0,3.349,0,2.828,2.828,0,0,1,1.2,2.314Z" transform="translate(-6.376 -13.126)" fill="#423460"/>
        <path id="Path_795" data-name="Path 795" d="M7.949,52.664A3.831,3.831,0,1,0,.956,50.5a3.8,3.8,0,0,0,.676,2.163A4.738,4.738,0,0,0,0,56.251V58.17a.956.956,0,0,0,.956.956H8.625a.96.96,0,0,0,.956-.956V56.251a4.738,4.738,0,0,0-1.632-3.587M4.787,48.582A1.923,1.923,0,0,1,6.706,50.5,1.958,1.958,0,0,1,4.787,52.42,1.964,1.964,0,0,1,2.868,50.5a1.928,1.928,0,0,1,1.919-1.919m2.875,8.625H1.912v-.956a2.828,2.828,0,0,1,1.2-2.314,3.685,3.685,0,0,0,3.349,0,2.838,2.838,0,0,1,1.2,2.314Z" transform="translate(0 -13.126)" fill="#423460"/>
      </g>
    </g>
  </g>
</svg>
