<svg xmlns="http://www.w3.org/2000/svg" xmlns:xlink="http://www.w3.org/1999/xlink" width="98" height="98" viewBox="0 0 98 98">
  <defs>
    <clipPath id="clip-path">
      <rect id="Rectangle_106" data-name="Rectangle 106" width="48" height="48" fill="none"/>
    </clipPath>
  </defs>
  <g id="Group_225" data-name="Group 225" transform="translate(-754 -1432)">
    <rect id="Rectangle_104" data-name="Rectangle 104" width="98" height="98" rx="20" transform="translate(754 1432)" fill="#fbe8e8"/>
    <g id="mission-icon" transform="translate(779 1457)">
      <g id="Group_162" data-name="Group 162" clip-path="url(#clip-path)">
        <path id="Path_773" data-name="Path 773" d="M151.114,142.371a1.2,1.2,0,1,0,0-2.392,9.569,9.569,0,1,0,9.568,9.568,1.2,1.2,0,1,0-2.392,0,7.176,7.176,0,1,1-7.176-7.176" transform="translate(-127.035 -125.628)" fill="#d23c3c"/>
        <path id="Path_774" data-name="Path 774" d="M46.9,16.815a1.2,1.2,0,0,0-2.285.715A21.612,21.612,0,1,1,30.468,3.382,1.2,1.2,0,1,0,31.183,1.1,24,24,0,1,0,46.9,16.816Z" transform="translate(0 0)" fill="#d23c3c"/>
        <path id="Path_775" data-name="Path 775" d="M90.572,71.342a1.294,1.294,0,0,0-1.2-1.3c-.358-.031-.715-.06-1.082-.06a16.744,16.744,0,1,0,16.745,16.745,10.606,10.606,0,0,0-.079-1.294,1.2,1.2,0,1,0-2.364.419c.026.29.051.578.051.875A14.353,14.353,0,1,1,88.294,72.372c.3,0,.584.027.874.051l.224.02a1.131,1.131,0,0,0,1.18-1.1Z" transform="translate(-64.214 -62.806)" fill="#d23c3c"/>
        <path id="Path_776" data-name="Path 776" d="M231.492,31.686v4.289L223.47,44a1.2,1.2,0,1,0,1.692,1.692l8.022-8.022h4.289a1.2,1.2,0,0,0,.846-.35l7.176-7.176a1.2,1.2,0,0,0-.846-2.042H241.06V24.51a1.2,1.2,0,0,0-2.042-.846l-7.176,7.176A1.2,1.2,0,0,0,231.492,31.686Zm2.392.5,4.784-4.784v1.9a1.195,1.195,0,0,0,1.2,1.2h1.9l-4.784,4.784h-3.093Z" transform="translate(-200.235 -20.924)" fill="#d23c3c"/>
      </g>
    </g>
  </g>
</svg>
