<svg xmlns="http://www.w3.org/2000/svg" xmlns:xlink="http://www.w3.org/1999/xlink" width="98" height="98" viewBox="0 0 98 98">
  <defs>
    <clipPath id="clip-path">
      <rect id="Rectangle_125" data-name="Rectangle 125" width="46.4" height="48" fill="none"/>
    </clipPath>
  </defs>
  <g id="Group_180" data-name="Group 180" transform="translate(-754 -1432)">
    <rect id="Rectangle_104" data-name="Rectangle 104" width="98" height="98" rx="20" transform="translate(754 1432)" fill="#f0e9ff"/>
    <g id="Group_189" data-name="Group 189" transform="translate(778 1457)">
      <g id="Group_188" data-name="Group 188" transform="translate(2)" clip-path="url(#clip-path)">
        <path id="Path_796" data-name="Path 796" d="M43,43.04V5.6a.8.8,0,0,0-.8-.8H35.577L34.159.547A.8.8,0,0,0,33.4,0H20.6a.8.8,0,0,0-.758.547L18.424,4.8H11.8a.8.8,0,0,0-.8.8V16.8a.8.8,0,0,0,1.6,0V6.4H41.4V42.24H12.6V38.4a.8.8,0,0,0-1.6,0v4.64a.8.8,0,0,0,.8.8H42.2a.8.8,0,0,0,.8-.8M20.11,4.8l1.066-3.2H32.824L33.89,4.8Z" transform="translate(-2.2)" fill="#423460"/>
        <path id="Path_797" data-name="Path 797" d="M49.2,11.2h-2a.8.8,0,0,0,0,1.6h1.2V48.64H19.6a.8.8,0,0,0-1.6,0v.8a.8.8,0,0,0,.8.8H49.2a.8.8,0,0,0,.8-.8V12a.8.8,0,0,0-.8-.8" transform="translate(-3.6 -2.24)" fill="#423460"/>
        <path id="Path_798" data-name="Path 798" d="M25.6,30.4V26.224A2.214,2.214,0,0,0,23.4,24H2.2A2.214,2.214,0,0,0,0,26.224V38.576A2.214,2.214,0,0,0,2.2,40.8H23.4a2.214,2.214,0,0,0,2.2-2.224V32m-24,6.576V26.224a.621.621,0,0,1,.6-.624H23.4a.621.621,0,0,1,.6.624V38.576a.621.621,0,0,1-.6.624H2.2a.621.621,0,0,1-.6-.624" transform="translate(0 -4.8)" fill="#423460"/>
        <path id="Path_799" data-name="Path 799" d="M13,28.8a.8.8,0,0,0-.8-.8H5.8a.8.8,0,0,0-.8.8v4a.8.8,0,0,0,.8.8h6.4a.8.8,0,0,0,.8-.8ZM11.4,32H6.6V29.6h4.8Z" transform="translate(-1 -5.6)" fill="#423460"/>
        <path id="Path_800" data-name="Path 800" d="M11.4,38H9.8a.8.8,0,1,0,0,1.6h1.6a.8.8,0,0,0,0-1.6" transform="translate(-1.8 -7.6)" fill="#423460"/>
        <path id="Path_801" data-name="Path 801" d="M19,38H15.8a.8.8,0,0,0,0,1.6H19A.8.8,0,0,0,19,38" transform="translate(-3.003 -7.6)" fill="#423460"/>
        <path id="Path_802" data-name="Path 802" d="M25.4,38H23.8a.8.8,0,1,0,0,1.6h1.6a.8.8,0,0,0,0-1.6" transform="translate(-4.6 -7.6)" fill="#423460"/>
        <path id="Path_803" data-name="Path 803" d="M41.2,13H30.8a.8.8,0,0,0-.8.8v4a.8.8,0,0,0,.8.8H41.2a.8.8,0,0,0,.8-.8v-4a.8.8,0,0,0-.8-.8m-.8,4H31.6V14.6h8.8Z" transform="translate(-6 -2.6)" fill="#423460"/>
      </g>
    </g>
  </g>
</svg>
