<svg id="join-icon" xmlns="http://www.w3.org/2000/svg" xmlns:xlink="http://www.w3.org/1999/xlink" width="98.865" height="124" viewBox="0 0 98.865 124">
  <defs>
    <clipPath id="clip-path">
      <rect id="Rectangle_92" data-name="Rectangle 92" width="98.865" height="124" fill="#ffffff"/>
    </clipPath>
  </defs>
  <g id="Group_151" data-name="Group 151" clip-path="url(#clip-path)">
    <path id="Path_758" data-name="Path 758" d="M77.081,103.892a3.352,3.352,0,0,0-3.351,3.351v6.7a3.353,3.353,0,0,1-3.351,3.351H10.054A3.352,3.352,0,0,1,6.7,113.946V10.054A3.352,3.352,0,0,1,10.054,6.7H70.378a3.353,3.353,0,0,1,3.351,3.351V50.27a3.351,3.351,0,1,0,6.7,0V10.054A10.054,10.054,0,0,0,70.378,0H10.054A10.054,10.054,0,0,0,0,10.054V113.946A10.054,10.054,0,0,0,10.054,124H70.378a10.054,10.054,0,0,0,10.054-10.054v-6.7a3.353,3.353,0,0,0-3.351-3.351Z" transform="translate(0 0)" fill="#ffffff"/>
    <path id="Path_759" data-name="Path 759" d="M89.514,301H59.351a3.351,3.351,0,1,0,0,6.7H89.514a3.351,3.351,0,1,0,0-6.7" transform="translate(-42.595 -228.946)" fill="#ffffff"/>
    <path id="Path_760" data-name="Path 760" d="M89.514,357H59.351a3.351,3.351,0,1,0,0,6.7H89.514a3.351,3.351,0,1,0,0-6.7" transform="translate(-42.595 -271.541)" fill="#ffffff"/>
    <path id="Path_761" data-name="Path 761" d="M89.514,413H59.351a3.351,3.351,0,0,0,0,6.7H89.514a3.351,3.351,0,0,0,0-6.7" transform="translate(-42.595 -314.135)" fill="#ffffff"/>
    <path id="Path_762" data-name="Path 762" d="M125.405,103.811a13.405,13.405,0,1,0-9.479-3.926,13.4,13.4,0,0,0,9.479,3.926m0-20.108a6.7,6.7,0,1,1-4.74,1.963,6.706,6.706,0,0,1,4.74-1.963" transform="translate(-85.189 -58.568)" fill="#ffffff"/>
    <path id="Path_763" data-name="Path 763" d="M135.162,213.054A10.054,10.054,0,0,0,125.108,203H115.054A10.054,10.054,0,0,0,105,213.054a3.351,3.351,0,0,0,6.7,0,3.352,3.352,0,0,1,3.351-3.351h10.054a3.353,3.353,0,0,1,3.351,3.351,3.351,3.351,0,1,0,6.7,0" transform="translate(-79.865 -154.405)" fill="#ffffff"/>
    <path id="Path_764" data-name="Path 764" d="M252.784,238a21.783,21.783,0,1,0,15.4,6.38A21.785,21.785,0,0,0,252.784,238Zm0,36.865a15.082,15.082,0,1,1,10.664-4.417,15.08,15.08,0,0,1-10.664,4.417" transform="translate(-175.703 -181.027)" fill="#ffffff"/>
    <path id="Path_765" data-name="Path 765" d="M290.767,294.94l-7.691,7.692-4.323-4.34h0a3.354,3.354,0,0,0-4.743,4.743l6.7,6.7a3.339,3.339,0,0,0,4.743,0l10.054-10.054a3.354,3.354,0,0,0-4.743-4.743Z" transform="translate(-207.67 -223.59)" fill="#ffffff"/>
  </g>
</svg>
