<svg xmlns="http://www.w3.org/2000/svg" width="98" height="98" viewBox="0 0 98 98">
  <g id="Group_181" data-name="Group 181" transform="translate(-1622 -1432)">
    <rect id="Rectangle_105" data-name="Rectangle 105" width="98" height="98" rx="20" transform="translate(1622 1432)" fill="#f0e9ff"/>
    <g id="plane-icon" transform="translate(1391 1170)">
      <path id="Path_742" data-name="Path 742" d="M23.966,0a3.473,3.473,0,0,0-2.733,1.317,9.512,9.512,0,0,0-2.257,5.921l.32,8.417L2.6,26.671A6.229,6.229,0,0,0,0,31.377a.962.962,0,0,0,1.311.9l13.176-5.119,5.185-1.587L20.068,36a1.788,1.788,0,0,0,.149.71l.259,1.486-5.451,5.451a.964.964,0,0,0-.282.681v2.184a.963.963,0,0,0,1.188.936l5.913-1.419.078.447a.969.969,0,0,0,.112.311,2.192,2.192,0,0,0,1.925,1.052,2.27,2.27,0,0,0,1.61-.64,1.974,1.974,0,0,0,.316-.412A.983.983,0,0,0,26,46.478l.073-.419,5.794,1.391a.964.964,0,0,0,.821-.18.907.907,0,0,0,.085-.075.962.962,0,0,0,.282-.681V44.328a.963.963,0,0,0-.282-.681L27.425,38.3l.278-1.592a1.73,1.73,0,0,0,.148-.678l.355-10.55,5.4,1.652,13.243,5.142a.963.963,0,0,0,1.312-.9,6.235,6.235,0,0,0-2.618-4.717l-17-11.216L28.821,7.2A9.389,9.389,0,0,0,26.7,1.315,3.479,3.479,0,0,0,23.966,0ZM13.857,25.337,2.347,29.807a5.057,5.057,0,0,1,1.331-1.538l15.7-10.361.215,5.67Zm2.813,19.954v-.563l4.212-4.212.631,3.613Zm14.456-.564v.563L26.4,44.157l.617-3.536ZM44.463,28.255a5.059,5.059,0,0,1,1.35,1.551L34.238,25.315l-5.964-1.827.195-5.787ZM25.193,2.517a7.46,7.46,0,0,1,1.7,4.652L25.94,35.935a.967.967,0,0,0-.111.309l-.341,1.95a.948.948,0,0,0-.082.47l-1.025,5.869a.472.472,0,0,0-.064.361l-.172.984a.469.469,0,0,1-.186.035.483.483,0,0,1-.186-.035l-1.683-9.634a.781.781,0,0,0-.1-.281L20.9,7.2A7.611,7.611,0,0,1,22.74,2.517a1.569,1.569,0,0,1,2.453,0Z" transform="translate(256 287)" fill="#423460"/>
    </g>
  </g>
</svg>
