<svg id="inpection-icon" xmlns="http://www.w3.org/2000/svg" xmlns:xlink="http://www.w3.org/1999/xlink" width="66.48" height="68" viewBox="0 0 66.48 68">
  <defs>
    <clipPath id="clip-path">
      <rect id="Rectangle_86" data-name="Rectangle 86" width="66.48" height="68" fill="#c6c6c6"/>
    </clipPath>
  </defs>
  <g id="Group_150" data-name="Group 150" clip-path="url(#clip-path)">
    <path id="Path_750" data-name="Path 750" d="M54.557,44.976a1.587,1.587,0,0,0-1.573,1.573V54.2a.717.717,0,0,1-.715.715H13.8a.717.717,0,0,1-.715-.715V3.79a.716.716,0,0,1,.715-.715H52.34a.717.717,0,0,1,.715.715v7.579a1.573,1.573,0,1,0,3.146,0V3.79A3.815,3.815,0,0,0,52.412,0H13.8a3.815,3.815,0,0,0-3.79,3.79V10.01H3.79A3.815,3.815,0,0,0,0,13.8V64.21A3.815,3.815,0,0,0,3.79,68H42.33a3.815,3.815,0,0,0,3.79-3.79V57.99h6.221a3.815,3.815,0,0,0,3.79-3.79V46.477a1.527,1.527,0,0,0-1.573-1.5ZM43.045,64.139a.64.64,0,0,1-.643.643H3.79a.64.64,0,0,1-.643-.643V13.729a.705.705,0,0,1,.643-.715H10.01V54.128a3.815,3.815,0,0,0,3.79,3.79H43.045Z" fill="#c6c6c6"/>
    <path id="Path_751" data-name="Path 751" d="M151.652,290.428h14.229a1.573,1.573,0,1,0,0-3.146H151.652a1.573,1.573,0,1,0,0,3.146" transform="translate(-130.916 -250.6)" fill="#c6c6c6"/>
    <path id="Path_752" data-name="Path 752" d="M151.652,362.668h24.669a1.573,1.573,0,1,0,0-3.146H151.652a1.573,1.573,0,0,0,0,3.146Z" transform="translate(-130.916 -313.616)" fill="#c6c6c6"/>
    <path id="Path_753" data-name="Path 753" d="M151.652,217.628h11.941a1.573,1.573,0,0,0,0-3.146H151.652a1.573,1.573,0,1,0,0,3.146" transform="translate(-130.916 -187.096)" fill="#c6c6c6"/>
    <path id="Path_754" data-name="Path 754" d="M165.881,142.242H151.652a1.573,1.573,0,1,0,0,3.146h14.229a1.573,1.573,0,1,0,0-3.146" transform="translate(-130.916 -124.08)" fill="#c6c6c6"/>
    <path id="Path_755" data-name="Path 755" d="M177.822,70.454a1.587,1.587,0,0,0-1.573-1.573h-24.6a1.573,1.573,0,1,0,0,3.146h24.669a1.527,1.527,0,0,0,1.5-1.573Z" transform="translate(-130.916 -60.086)" fill="#c6c6c6"/>
    <path id="Path_756" data-name="Path 756" d="M330.759,160.618l-6.364-6.364a11.632,11.632,0,1,0-9.224,4.576,11.768,11.768,0,0,0,7.079-2.431l6.364,6.364a1.577,1.577,0,0,0,1.072.429,1.455,1.455,0,0,0,1.072-.429A1.433,1.433,0,0,0,330.759,160.618Zm-24.1-13.443a8.58,8.58,0,1,1,8.58,8.58,8.605,8.605,0,0,1-8.58-8.58" transform="translate(-264.761 -118.216)" fill="#d43031"/>
    <path id="Path_757" data-name="Path 757" d="M363.59,197.611l-3.074,3.432-1.359-1.5a1.52,1.52,0,0,0-2.288,2l2.5,2.789a1.423,1.423,0,0,0,1.144.5,1.688,1.688,0,0,0,1.144-.5l4.219-4.719a1.489,1.489,0,0,0-.143-2.145A1.564,1.564,0,0,0,363.59,197.611Z" transform="translate(-310.963 -171.941)" fill="#d43031"/>
  </g>
</svg>
