<svg xmlns="http://www.w3.org/2000/svg" xmlns:xlink="http://www.w3.org/1999/xlink" width="68" height="68" viewBox="0 0 68 68">
  <defs>
    <clipPath id="clip-path">
      <rect id="Rectangle_85" data-name="Rectangle 85" width="68" height="68" fill="#c6c6c6"/>
    </clipPath>
  </defs>
  <g id="clearance-icon" transform="translate(0 -3)">
    <g id="Group_149" data-name="Group 149" transform="translate(0 3)" clip-path="url(#clip-path)">
      <path id="Path_743" data-name="Path 743" d="M67.923,57.048A1.9,1.9,0,0,0,68,56.666V11.333A1.133,1.133,0,0,0,66.867,10.2h-44.2a1.133,1.133,0,0,0-1.133,1.133V20.4H7.933V10.2h10.2a1.141,1.141,0,0,0,.956-1.741L16.957,5.1,19.09,1.741A1.141,1.141,0,0,0,18.133,0H6.8A1.133,1.133,0,0,0,5.667,1.134c-.007,4.585.005,14.613,0,19.266H1.133A1.133,1.133,0,0,0,0,21.533V51a1.133,1.133,0,0,0,1.133,1.133h20.4V66.866A1.133,1.133,0,0,0,22.667,68H54.4a1.305,1.305,0,0,0,.717-.256l12.467-10.2A1.439,1.439,0,0,0,67.923,57.048ZM14.658,5.708l1.414,2.226H7.933V2.267h8.138L14.658,4.492a1.132,1.132,0,0,0,0,1.215ZM2.266,22.666h34v5.667h-34Zm0,7.933h34V43.066H28.333A1.133,1.133,0,0,0,27.2,44.2v5.667H2.266Zm27.2,18.133v-3.4H34Zm23.8,7.933v9.067H23.8v-13.6c.119-.032,4.949.066,4.891-.058a1.128,1.128,0,0,0,.322-.169l9.067-6.8a1.232,1.232,0,0,0,.454-.907V21.532A1.133,1.133,0,0,0,37.4,20.4H23.8V12.466H65.733V55.532H54.4a1.133,1.133,0,0,0-1.133,1.133Zm2.267,7.808V57.8h8.158Z" transform="translate(0 0)" fill="#c6c6c6"/>
      <path id="Path_744" data-name="Path 744" d="M45.028,273.516h10.2a1.134,1.134,0,0,0,0-2.267h-10.2a1.134,1.134,0,0,0,0,2.267" transform="translate(-38.228 -236.116)" fill="#d43031"/>
      <path id="Path_745" data-name="Path 745" d="M59.613,306.249H44.879a1.133,1.133,0,0,0,0,2.267H59.613a1.134,1.134,0,0,0,0-2.267" transform="translate(-38.08 -266.583)" fill="#d43031"/>
      <path id="Path_746" data-name="Path 746" d="M319.994,367.5H307.528a1.134,1.134,0,0,0,0,2.267h12.467a1.134,1.134,0,0,0,0-2.267" transform="translate(-266.728 -319.9)" fill="#c6c6c6"/>
      <path id="Path_747" data-name="Path 747" d="M315.01,411.249H307.53a1.134,1.134,0,0,0,0,2.267h7.479a1.134,1.134,0,0,0,0-2.267" transform="translate(-266.73 -357.983)" fill="#c6c6c6"/>
      <path id="Path_748" data-name="Path 748" d="M210.562,420.3l-5.611,5.94-1.819-1.873a1.134,1.134,0,0,0-1.625,1.581l2.644,2.72a1.14,1.14,0,0,0,1.636-.012l6.423-6.8a1.133,1.133,0,0,0-1.647-1.556Z" transform="translate(-175.12 -365.546)" fill="#d43031"/>
      <path id="Path_749" data-name="Path 749" d="M333.629,131.566h13.6a1.133,1.133,0,0,0,1.133-1.133v-6.8a1.133,1.133,0,0,0-1.133-1.133h-13.6a1.133,1.133,0,0,0-1.133,1.133v6.8a1.133,1.133,0,0,0,1.133,1.133m1.133-6.8H346.1V129.3H334.763Z" transform="translate(-289.43 -106.633)" fill="#c6c6c6"/>
    </g>
  </g>
</svg>
