<svg id="ship-icon" xmlns="http://www.w3.org/2000/svg" width="28" height="21" viewBox="0 0 28 21">
  <path id="Path_792" data-name="Path 792" d="M143.667,50.8a.623.623,0,1,0,0,1.217h.275a.623.623,0,1,0,0-1.217Z" transform="translate(-127.479 -46.392)" fill="#8f8f8f"/>
  <path id="Path_793" data-name="Path 793" d="M243.506,200.839a.623.623,0,1,0,0,1.217h.275a.623.623,0,1,0,0-1.217Z" transform="translate(-216.538 -183.409)" fill="#8f8f8f"/>
  <path id="Path_794" data-name="Path 794" d="M55.7,8.992l5.989-1.177v9.615H58.321Zm7.5-1.177L69.19,8.992l-2.625,8.439H63.2ZM57.5,3.362h9.88V7.384l-4.76-.935a.935.935,0,0,0-.36,0l-4.76.935V5.626h4.778a.7.7,0,0,0,.757-.609.7.7,0,0,0-.757-.608H57.5Zm3.779-2.145H63.6v.928H61.282ZM60.525,0a.7.7,0,0,0-.757.608V2.145H56.746a.7.7,0,0,0-.757.609V7.682L54.6,7.955a.766.766,0,0,0-.468.277.507.507,0,0,0-.086.462l2.717,8.737H55.727a.623.623,0,1,0,0,1.217H73.061a.623.623,0,1,0,0-1.217H68.126l2.718-8.737a.508.508,0,0,0-.086-.462.766.766,0,0,0-.469-.277L68.9,7.682V2.754a.7.7,0,0,0-.757-.609H65.118V.608A.7.7,0,0,0,64.361,0Z" transform="translate(-48.187)" fill="#8f8f8f"/>
  <path id="Path_795" data-name="Path 795" d="M22.7,227.941a.623.623,0,1,0,0,1.217H40.037a.623.623,0,1,0,0-1.217Z" transform="translate(-19.576 -208.158)" fill="#8f8f8f"/>
  <path id="Path_796" data-name="Path 796" d="M.757,227.941a.623.623,0,1,0,0,1.217h.275a.623.623,0,1,0,0-1.217Z" transform="translate(0 -208.158)" fill="#8f8f8f"/>
</svg>
