<svg id="ship" xmlns="http://www.w3.org/2000/svg" width="15.851" height="18.286" viewBox="0 0 15.851 18.286">
  <path id="Path_730" data-name="Path 730" d="M12.228,455.414a2.088,2.088,0,0,1-1.317-.478l-.01-.008a1.261,1.261,0,0,0-1.649,0,2.054,2.054,0,0,1-2.653,0,1.261,1.261,0,0,0-1.649,0,2.054,2.054,0,0,1-2.653,0,1.261,1.261,0,0,0-1.65,0,.4.4,0,0,1-.5-.614,2.051,2.051,0,0,1,2.652,0,1.262,1.262,0,0,0,1.65,0,2.053,2.053,0,0,1,2.653,0,1.262,1.262,0,0,0,1.65,0,2.051,2.051,0,0,1,2.643-.008l.01.008a1.261,1.261,0,0,0,1.649,0,2.053,2.053,0,0,1,2.653,0,.4.4,0,1,1-.5.614,1.261,1.261,0,0,0-1.65,0,2.089,2.089,0,0,1-1.326.486Z" transform="translate(0 -437.128)" fill="#423460"/>
  <path id="Path_731" data-name="Path 731" d="M33,206.493a2.085,2.085,0,0,1-1.329-.486,1.286,1.286,0,0,0-1.65,0,2.06,2.06,0,0,1-2.652,0,1.274,1.274,0,0,0-1.646,0,2.083,2.083,0,0,1-1.33.487c-.015,0-.06,0-.075-.005a.371.371,0,0,1-.356-.27l-2.378-7.129a.4.4,0,0,1,.207-.484l6.7-3.17a.394.394,0,0,1,.337,0L35.6,198.6a.4.4,0,0,1,.208.484l-2.378,7.129a.4.4,0,0,1-.376.271.314.314,0,0,1-.056,0Zm-6.455-1.585a2.062,2.062,0,0,1,1.327.487,1.266,1.266,0,0,0,1.649,0,2.1,2.1,0,0,1,2.655,0,1.338,1.338,0,0,0,.6.285l2.17-6.507-6.28-2.942-6.219,2.94,2.171,6.509a1.343,1.343,0,0,0,.6-.287,2.062,2.062,0,0,1,1.325-.486Z" transform="translate(-20.774 -188.207)" fill="#423460"/>
  <path id="Path_732" data-name="Path 732" d="M85.314,62.1a.394.394,0,0,1-.168-.037L80.528,59.9l-4.555,2.155a.4.4,0,0,1-.566-.358V57.421a.4.4,0,0,1,.4-.4h1.189V54.251a.4.4,0,0,1,.4-.4h6.34a.4.4,0,0,1,.4.4v2.774h1.189a.4.4,0,0,1,.4.4V61.7a.4.4,0,0,1-.4.4Zm-4.787-3.035a.391.391,0,0,1,.168.038l4.223,1.978V57.818H83.729a.4.4,0,0,1-.4-.4V54.648H77.785v2.774a.4.4,0,0,1-.4.4H76.2v3.251L80.357,59.1a.4.4,0,0,1,.17-.038Z" transform="translate(-72.632 -51.873)" fill="#423460"/>
  <path id="Path_733" data-name="Path 733" d="M185.061,2.774h-1.585a.4.4,0,0,1-.4-.4V.793A.794.794,0,0,1,183.873,0h.793a.794.794,0,0,1,.793.793V2.378a.4.4,0,0,1-.4.4Zm-1.189-.793h.793V.793h-.793Z" transform="translate(-176.343)" fill="#423460"/>
  <path id="Path_734" data-name="Path 734" d="M205,216.859a.4.4,0,0,1-.4-.4v-9.907a.4.4,0,1,1,.793,0v9.907a.4.4,0,0,1-.4.4" transform="translate(-197.079 -198.573)" fill="#423460"/>
</svg>
