<svg xmlns="http://www.w3.org/2000/svg" xmlns:xlink="http://www.w3.org/1999/xlink" width="98" height="98" viewBox="0 0 98 98">
  <defs>
    <clipPath id="clip-path">
      <rect id="Rectangle_126" data-name="Rectangle 126" width="34.618" height="48" fill="none"/>
    </clipPath>
  </defs>
  <g id="Group_181" data-name="Group 181" transform="translate(-1622 -1432)">
    <rect id="Rectangle_105" data-name="Rectangle 105" width="98" height="98" rx="20" transform="translate(1622 1432)" fill="#f0e9ff"/>
    <g id="Group_191" data-name="Group 191" transform="translate(1653.691 1456.84)">
      <g id="Group_190" data-name="Group 190" clip-path="url(#clip-path)">
        <path id="Path_804" data-name="Path 804" d="M17.309,21.268c-4.54,0-7.957-5.929-7.957-9.773,0-4.014,3.569-7.279,7.957-7.279s7.957,3.265,7.957,7.279c0,3.844-3.417,9.773-7.957,9.773m0-15.052c-3.285,0-5.957,2.368-5.957,5.279,0,3,2.727,7.773,5.957,7.773s5.957-4.775,5.957-7.773c0-2.911-2.672-5.279-5.957-5.279" fill="#423460"/>
        <path id="Path_805" data-name="Path 805" d="M28.556,15.807a1,1,0,0,1-1-1V11.15c0-5.045-4.6-9.15-10.247-9.15S7.062,6.105,7.062,11.15v3.657a1,1,0,1,1-2,0V11.15C5.062,5,10.556,0,17.309,0S29.556,5,29.556,11.15v3.657a1,1,0,0,1-1,1" fill="#423460"/>
        <path id="Path_806" data-name="Path 806" d="M6.062,18.565H1.776a1,1,0,0,1-1-1V10.714a1,1,0,0,1,1-1H6.062a1,1,0,0,1,1,1v6.851a1,1,0,0,1-1,1m-3.286-2H5.062V11.714H2.776Z" fill="#423460"/>
        <path id="Path_807" data-name="Path 807" d="M32.842,18.565H28.556a1,1,0,0,1-1-1V10.714a1,1,0,0,1,1-1h4.286a1,1,0,0,1,1,1v6.851a1,1,0,0,1-1,1m-3.286-2h2.286V11.714H29.556Z" fill="#423460"/>
        <path id="Path_808" data-name="Path 808" d="M24.259,12.773a1.014,1.014,0,0,1-.36-.067c-3.163-1.221-5.371-2.6-6.593-4.1a7.113,7.113,0,0,1-2.483,2.948,6.467,6.467,0,0,1-4.7.912,1,1,0,0,1,.456-1.947,4.5,4.5,0,0,0,3.172-.652A6.527,6.527,0,0,0,16.2,5.648a2.452,2.452,0,0,1,.2-.858,1,1,0,0,1,1.889.6c-.035.2-.072.389-.113.578.071.9,1.255,2.872,6.438,4.872a1,1,0,0,1-.36,1.934" fill="#423460"/>
        <path id="Path_809" data-name="Path 809" d="M30.573,30.745a1,1,0,0,1-.837-.45c-2.118-3.22-7-5.3-12.427-5.3S7,27.075,4.882,30.3a1,1,0,0,1-1.67-1.1c2.478-3.767,8.011-6.2,14.1-6.2s11.618,2.434,14.1,6.2a1,1,0,0,1-.833,1.55" fill="#423460"/>
        <path id="Path_810" data-name="Path 810" d="M29.884,45.293H4.734a1,1,0,0,1-.969-.75L.031,29.993A1,1,0,0,1,1,28.746H33.617a1,1,0,0,1,.969,1.247l-3.733,14.55a1,1,0,0,1-.969.75m-24.375-2h23.6l3.219-12.547H2.289Z" fill="#423460"/>
        <path id="Path_811" data-name="Path 811" d="M33.321,48H1.3a1,1,0,0,1,0-2H33.321a1,1,0,0,1,0,2" fill="#423460"/>
        <path id="Path_812" data-name="Path 812" d="M10.352,21.822H4.046a1,1,0,0,1-1-1V17.565a1,1,0,0,1,2,0v2.257h5.306a1,1,0,0,1,0,2" fill="#423460"/>
      </g>
    </g>
  </g>
</svg>
