<svg id="truck-icon-2" xmlns="http://www.w3.org/2000/svg" width="28" height="16.683" viewBox="0 0 28 16.683">
  <path id="Path_785" data-name="Path 785" d="M.744,62.842a.744.744,0,1,0,0,1.487h.27a.744.744,0,0,0,0-1.487Z" transform="translate(0 -56.178)" fill="#8f8f8f"/>
  <path id="Path_786" data-name="Path 786" d="M22.689,62.842a.744.744,0,0,0,0,1.487h4.126a.744.744,0,1,0,0-1.487Z" transform="translate(-19.619 -56.178)" fill="#8f8f8f"/>
  <path id="Path_787" data-name="Path 787" d="M27.014,36.81a.744.744,0,0,0,0,1.487h.267a.744.744,0,0,0,0-1.487Z" transform="translate(-23.484 -32.907)" fill="#8f8f8f"/>
  <path id="Path_788" data-name="Path 788" d="M48.933,36.81a.744.744,0,1,0,0,1.487h2.157a.744.744,0,0,0,0-1.487Z" transform="translate(-43.079 -32.907)" fill="#8f8f8f"/>
  <path id="Path_789" data-name="Path 789" d="M27.014,88.872a.744.744,0,1,0,0,1.487h.27a.744.744,0,1,0,0-1.487Z" transform="translate(-23.484 -79.448)" fill="#8f8f8f"/>
  <path id="Path_790" data-name="Path 790" d="M48.963,88.872a.744.744,0,1,0,0,1.487h2.154a.744.744,0,1,0,0-1.487Z" transform="translate(-43.106 -79.448)" fill="#8f8f8f"/>
  <path id="Path_791" data-name="Path 791" d="M45.293,14.071A1.124,1.124,0,1,1,46.417,15.2a1.126,1.126,0,0,1-1.124-1.124m13.925,0A1.125,1.125,0,1,1,60.343,15.2a1.126,1.126,0,0,1-1.125-1.124m-2.4-8.68h3.892l2.209,2.416H58.71a.744.744,0,0,0,0,1.487h5.156v4.034H62.846a2.611,2.611,0,0,0-5.007,0H56.821ZM42.527,0a.744.744,0,0,0,0,1.487H55.333v11.84H48.921a2.611,2.611,0,0,0-5.006,0H42.527a.743.743,0,1,0,0,1.487h1.388a2.611,2.611,0,0,0,5.006,0H57.84a2.611,2.611,0,0,0,5.007,0h1.763a.743.743,0,0,0,.744-.743V8.55a.744.744,0,0,0-.195-.5l-3.569-3.9A.743.743,0,0,0,61.04,3.9H56.821V.744A.744.744,0,0,0,56.077,0Z" transform="translate(-37.352)" fill="#8f8f8f"/>
</svg>
