<svg id="twitter-icon" xmlns="http://www.w3.org/2000/svg" width="39.374" height="32" viewBox="0 0 39.374 32">
  <path id="twitter-icon-2" data-name="twitter-icon" d="M12.383,32C27.241,32,35.367,19.69,35.367,9.015c0-.35-.007-.7-.024-1.044a16.421,16.421,0,0,0,4.03-4.183A16.163,16.163,0,0,1,34.735,5.06,8.109,8.109,0,0,0,38.287.592a16.177,16.177,0,0,1-5.129,1.96A8.086,8.086,0,0,0,19.391,9.919a22.933,22.933,0,0,1-16.65-8.44,8.082,8.082,0,0,0,2.5,10.784,8.008,8.008,0,0,1-3.659-1.011c0,.034,0,.069,0,.1a8.082,8.082,0,0,0,6.482,7.92,8.086,8.086,0,0,1-3.649.138,8.088,8.088,0,0,0,7.547,5.611A16.209,16.209,0,0,1,1.926,28.483,16.514,16.514,0,0,1,0,28.371,22.871,22.871,0,0,0,12.383,32" fill="#d43031"/>
</svg>
